<svg xmlns="http://www.w3.org/2000/svg" width="32" height="32" viewBox="0 0 8.467 8.467"><g transform="translate(0 -288.533)"><path d="m 0.9949671,289.9224 a 0.19841184,0.19844025 0 1 0 0,0.39684 l 0.6700888,0 c 0.142218,0 0.2670383,0.0908 0.3115363,0.22787 l 0.8901823,2.74275 -0.3916179,0.27438 c -0.1375571,0.0962 -0.2257674,0.24622 -0.2257754,0.43303 l 0,0.0268 c 0,0.28975 0.2393666,0.52862 0.5290454,0.52862 l 4.4286888,0 a 0.19841184,0.19844025 0 1 0 0,-0.39684 l -4.4286888,0 c -0.075402,0 -0.1322614,-0.0566 -0.1322614,-0.13178 l 0,-0.0268 c 2.7e-6,-0.0288 0.040676,-0.0971 0.056314,-0.10799 l 0.4706651,-0.32917 3.1546392,0 c 0.1996988,0 0.3779077,-0.13053 0.43915,-0.32036 l 0.6184249,-1.91806 c 0.094569,-0.29319 -0.1307615,-0.60561 -0.43915,-0.60561 l -3.8371288,0 a 0.19841184,0.19844025 0 1 0 0,0.39684 l 3.8371288,0 c 0.049029,0 0.077167,0.0387 0.061483,0.0873 l -0.1214132,0.37565 -3.2460847,0 a 0.13227455,0.1322935 0 1 0 0,0.26456 l 3.1608396,0 -0.1704955,0.52912 -2.4612988,0 a 0.13227452,0.13229346 0 1 0 0,0.26456 l 2.3760538,0 -0.1560287,0.48364 c -0.00915,0.0283 -0.033079,0.0455 -0.06148,0.0455 l -3.084374,0 -0.889148,-2.7386 C 2.2574386,290.12643 1.9783407,289.9224 1.6650559,289.9224 Z" style="line-height:normal;text-indent:0;text-align:start;text-decoration-line:none;text-decoration-style:solid;text-decoration-color:#000;text-transform:none;white-space:normal;isolation:auto;mix-blend-mode:normal;solid-color:#000;solid-opacity:1" fill="#666" fill-rule="evenodd" color="#000" enable-background="accumulate" font-family="sans-serif" font-weight="400" overflow="visible"/><path fill="#666" d="M3.902886 295.28023a.39678401.39684083 0 01-.396784.39684.39678401.39684083 0 01-.396784-.39684.39678401.39684083 0 01.396784-.39684.39678401.39684083 0 01.396784.39684zM6.5481127 295.28023a.39678401.39684083 0 01-.396784.39684.39678401.39684083 0 01-.396784-.39684.39678401.39684083 0 01.396784-.39684.39678401.39684083 0 01.396784.39684z"/></g></svg>