<svg xmlns="http://www.w3.org/2000/svg" width="512" height="512" viewBox="0 0 512 512"><linearGradient id="a" x1="173.958" x2="339.47" y1="343.013" y2="177.501" gradientUnits="userSpaceOnUse"><stop offset="0" stop-color="#0FF"/><stop offset="1" stop-color="#FF7BAC"/></linearGradient><path fill="url(#a)" d="M342.313 291.392l-.054-.001c10.03-15.889 15.76-34.764 15.539-54.993-.596-54.549-45.023-99.137-99.57-99.916-56.488-.807-102.532 44.741-102.532 101.043 0 19.233 5.375 37.211 14.702 52.516l-.036-.001.089.086c3.231 5.29 25.706 43.559 32.758 76.838 2.237 10.556 11.448 18.171 22.237 18.313l61.21.811c11.037.146 20.576-7.563 22.858-18.361 7.13-33.736 29.612-71.393 32.659-76.201l.14-.134z"/><path fill="#FFF" d="M211.582 270.771l30.07 115.983c1.613 6.226 11.262 3.586 9.643-2.658l-30.07-115.984c-1.614-6.225-11.262-3.586-9.643 2.659zM292.276 268.111l-30.069 115.984c-1.616 6.234 8.026 8.894 9.643 2.658l30.07-115.983c1.615-6.233-8.026-8.893-9.644-2.659zM240.186 273.148c-1.225 1.626-.258.284.094.006.702-.558 1.275-1.167 2.044-1.648 1.985-1.246 4.788-2.106 7.119-1.436 3.814 1.097 6.398 4.714 10.413 5.821 7.271 2.007 17.854.034 22.095-6.856 3.383-5.495-5.264-10.523-8.635-5.047.249-.403.011.214-.864.732-2.028 1.205-4.046 1.728-6.43 1.819-5.051.194-7.169-3.105-11.313-5.128-7.998-3.904-18.042-.102-23.157 6.688-3.874 5.143 4.805 10.131 8.634 5.049z"/><path fill="#3F5EAB" d="M300.065 392.107h-86.629c-4.495 0-8.152 3.657-8.152 8.152v7.715c0 4.495 3.657 8.152 8.152 8.152h86.629c4.495 0 8.152-3.657 8.152-8.152v-7.715c.001-4.494-3.656-8.152-8.152-8.152zM300.065 421.34h-86.629c-4.495 0-8.152 3.657-8.152 8.152v7.715c0 4.495 3.657 8.152 8.152 8.152h86.629c4.495 0 8.152-3.657 8.152-8.152v-7.715c.001-4.495-3.656-8.152-8.152-8.152zM293.542 451.667h-74.583c0 10.995 4.635 19.608 10.553 19.608h54.477c5.917 0 10.553-8.613 10.553-19.608h-1z"/><linearGradient id="b" x1="256.001" x2="256.001" y1="112.909" y2="50.384" gradientUnits="userSpaceOnUse"><stop offset="0" stop-color="#0FF"/><stop offset="1" stop-color="#FF7BAC"/></linearGradient><path fill="url(#b)" d="M246 50.384v62.524c0 12.87 20 12.891 20 0V50.384c.001-12.869-20-12.89-20 0z"/><linearGradient id="c" x1="125.9" x2="125.9" y1="158.349" y2="112.724" gradientUnits="userSpaceOnUse"><stop offset="0" stop-color="#0FF"/><stop offset="1" stop-color="#FF7BAC"/></linearGradient><path fill="url(#c)" d="M155.077 150.571a1842847.2 1842847.2 0 0 0-44.212-44.211c-9.113-9.113-23.259 5.025-14.142 14.142l44.211 44.211c9.113 9.113 23.259-5.025 14.143-14.142z"/><linearGradient id="d" x1="386.102" x2="386.102" y1="158.349" y2="112.724" gradientUnits="userSpaceOnUse"><stop offset="0" stop-color="#0FF"/><stop offset="1" stop-color="#FF7BAC"/></linearGradient><path fill="url(#d)" d="M371.067 164.713l44.211-44.211c9.113-9.113-5.025-23.259-14.142-14.142l-44.212 44.211c-9.111 9.113 5.026 23.259 14.143 14.142z"/></svg>