<svg xmlns="http://www.w3.org/2000/svg" data-name="Layer 1" viewBox="0 0 512 512"><path fill="#ff7b4f" d="M305.05585,54.77091h49.84808a0,0,0,0,1,0,0v108.8208a9,9,0,0,1-9,9H314.05585a9,9,0,0,1-9-9V54.77091a0,0,0,0,1,0,0Z" transform="rotate(-34.95 329.98 113.681)"/><path fill="#f9beac" d="M86.8117,342.03076a82.19688,82.19688,0,0,1,68.19585-86.13715l41.2114-7.04939a20.54988,20.54988,0,0,0,17.089-20.25284v-35.088h84.58682v35.088a20.54988,20.54988,0,0,0,17.089,20.25284l42.00936,7.18589a82.19735,82.19735,0,0,1,68.2471,85.23852l-3.84879,74.70059L88.484,366.08546Z"/><path fill="#ff7b4f" d="M153.94692,512a7,7,0,0,1-7-7V256.88049a9.12063,9.12063,0,0,1,7.58531-8.98943l25.99294-3.59577a9.125,9.125,0,0,1,10.65849,8.98943V302.742a62.57274,62.57274,0,0,0,62.78312,62.56614c34.64777-.1021,62.40535-28.87162,62.40535-63.51955V253.28472a9.125,9.125,0,0,1,10.65849-8.98943l30.98329,3.59577a9.11109,9.11109,0,0,1,7.58531,8.98943V505a7,7,0,0,1-7,7Z"/><path fill="#f24f2a" d="M220.05228,359.05283l-8.54647,9.87838a55.59773,55.59773,0,0,0-8.23447,60.10442l0,.00006a49.13181,49.13181,0,0,0,44.43273,28.16356H264.842a49.1318,49.1318,0,0,0,44.43273-28.16356l0-.00006a55.59773,55.59773,0,0,0-8.23447-60.10442l-8.54647-9.87838Z"/><path fill="#f24f2a" d="M146.9469,384.85864v101.6106a45.889,45.889,0,0,0,14.17712-5.72778l75.38672-46.09522-5.22363-51.85547-21.3042,29.23877a12.54112,12.54112,0,0,1-6.17627,4.51453l-56.85644,18.9198V384.85962Z"/><path fill="#f24f2a" d="M191.4871 455.66a22.84815 22.84815 0 0 0 29.35-2.48l3.78-3.78 10.42-10.41a14.97119 14.97119 0 0 0 1.78-2.14 15.2467 15.2467 0 0 0-.38-17.77 14.25792 14.25792 0 0 0-1.4-1.62l-.19-.19-13.19-13.18-.47-.47a10.85947 10.85947 0 0 0-15.37 0l-7.31 7.3a8.30492 8.30492 0 0 0 0-11.76l-2.59-2.59a8.32907 8.32907 0 0 0-11.76 0l-9.96 9.97a22.85262 22.85262 0 0 0-3.25 28.2zM365.59924 391.62939l-.19531.03882v43.79566l-56.85632-18.9198a12.54143 12.54143 0 0 1-6.17639-4.51453L281.06665 382.79l-5.22327 51.8562 75.38684 46.09522a45.87018 45.87018 0 0 0 14.369 5.77z"/><path fill="#f24f2a" d="M320.5129,455.66a22.84815,22.84815,0,0,1-29.35-2.48l-3.78-3.78-10.42-10.41a14.97119,14.97119,0,0,1-1.78-2.14,15.2467,15.2467,0,0,1,.38-17.77,14.25792,14.25792,0,0,1,1.4-1.62l.19-.19,13.19-13.18.47-.47a10.85947,10.85947,0,0,1,15.37,0l7.31,7.3a8.30492,8.30492,0,0,1,0-11.76l2.59-2.59a8.32907,8.32907,0,0,1,11.76,0l9.96,9.97a22.85262,22.85262,0,0,1,3.25,28.2Z"/><path fill="#e58a7b" d="M331.62918 155.89771H318.23674l7-43.30161H335.9475a10.0457 10.0457 0 0 1 9.87951 11.88066l-4.31833 23.21283A10.04766 10.04766 0 0 1 331.62918 155.89771zM179.57374 155.89771h13.39244l-7-43.30161H175.25542a10.0457 10.0457 0 0 0-9.87951 11.88066l4.31833 23.21283A10.04766 10.04766 0 0 0 179.57374 155.89771zM267.57153 193.50342H213.30786v33.2561a107.09082 107.09082 0 0 0 19.73645 20.76074h0a45.42586 45.42586 0 0 0 28.43213 9.99732h2.25024a45.42511 45.42511 0 0 0 28.43177-9.99732h.00036a107.21162 107.21162 0 0 0 8.90284-8.00378 20.45844 20.45844 0 0 1-3.16687-10.92517V193.50342z"/><path fill="#f9beac" d="M285.15879 226.52024l-.00028.00007a45.42485 45.42485 0 0 1-28.43181 9.99727h-2.25027a45.425 45.425 0 0 1-28.43209-9.99727v-.00007a107.11734 107.11734 0 0 1-40.07808-83.53986V59.399a48.71829 48.71829 0 0 1 48.72911-48.70746h41.81239A48.71828 48.71828 0 0 1 325.23687 59.399v83.58137A107.11734 107.11734 0 0 1 285.15879 226.52024zM281.06668 368.79008l21.30452 29.23956a12.5414 12.5414 0 0 0 6.17632 4.51441l56.85641 18.91982V377.66815l58.46624-11.58269-3.30353 64.11773c-1.77838 34.5163-39.84016 54.57375-69.33642 36.53827L275.84338 420.6462z"/><path fill="#e58a7b" d="M301.88818,17.81519a51.96914,51.96914,0,0,0-17.47033-3.01246H230.80542a51.80964,51.80964,0,0,0-29.624,9.2566,48.54515,48.54515,0,0,0-15.21509,35.3396v45.76879a21.57623,21.57623,0,0,0,19.6228,4.93262l50.259-12.27978.0337-.0083a10.99126,10.99126,0,0,1,6.42981.32031,61.78225,61.78225,0,0,0,6.6759,2.03662l25.06567,6.12427a34.1127,34.1127,0,0,0,31.1836-7.94678V59.39893A48.67135,48.67135,0,0,0,301.88818,17.81519Z"/><path fill="#f24f2a" d="M268.9875,88.8665l25.048,6.12a34.27365,34.27365,0,0,0,42.41624-33.28212V55.48916A52.01155,52.01155,0,0,0,284.41786,3.5H247.41144A25.46584,25.46584,0,0,0,221.94,28.96018v.00007A61.67532,61.67532,0,0,0,268.9875,88.8665Z"/><path fill="#ff7b4f" d="M255.84823,86.51791,205.589,98.79769a21.66938,21.66938,0,0,1-26.8175-21.04249v-22.266A52.01156,52.01156,0,0,1,230.80545,3.5h49.612a12.86305,12.86305,0,0,1,12.86591,12.86019v22.4911A49.07426,49.07426,0,0,1,255.84823,86.51791Z"/><path fill="#313848" d="M296.54033,166.0846a23.18139,23.18139,0,0,1-12.0935.98362c-4.0797-.82681-6.52781-2.64969-12.08065-3.24a33.85873,33.85873,0,0,0-16.76472,2.7306,33.85812,33.85812,0,0,0-16.76443-2.7306c-5.55283.59029-8.00123,2.41317-12.08094,3.24a23.18086,23.18086,0,0,1-12.09345-.98366c-5.8362-1.92763-10.37972,5.2119-6.254,9.76767a42.25622,42.25622,0,0,0,17.8519,11.98527c4.263,1.43329,19.47693,6.54832,28.38574-2.10785.3391-.32939.65486-.67.95514-1.01686.30058.34683.616.68747.95514,1.01686,8.90882,8.65617,24.12278,3.54114,28.38575,2.10785a42.25772,42.25772,0,0,0,17.85212-11.98536C306.92026,171.29646,302.37651,164.15705,296.54033,166.0846Z"/><path fill="#e58a7b" d="M267.09175,149.86768v9.21364a11.49032,11.49032,0,0,1-11.49031,11.49032h0a11.49032,11.49032,0,0,1-11.49031-11.49032v-9.21364a2,2,0,0,1,2-2h18.98065A2,2,0,0,1,267.09175,149.86768Z"/><path fill="#f9beac" d="M231.287,368.79073l-21.304,29.23891a12.54136,12.54136,0,0,1-6.17632,4.51441l-56.85641,18.91982V370.85969l-26.5564-8.52759L88.484,366.08546l3.30353,64.11773c1.77838,34.5163,39.84016,54.57375,69.33642,36.53827l75.38685-46.09526Z"/><path fill="#bd5e67" d="M309.27477,415.03569l0-.00006a55.59773,55.59773,0,0,0-8.23447-60.10442l-8.54647-9.87838a55.59767,55.59767,0,0,1-10.87852-53.40972v0H230.93079v0a55.59767,55.59767,0,0,1-10.87852,53.40972l-8.54647,9.87838a55.59773,55.59773,0,0,0-8.23447,60.10442l0,.00006a49.13181,49.13181,0,0,0,44.43273,28.16356H264.842A49.1318,49.1318,0,0,0,309.27477,415.03569Z"/><rect width="72.502" height="16.842" x="220.022" y="274.801" fill="#75212c" rx="8.421"/><path fill="#e58a7b" d="M236.04675,416.03931l-8.81738-14.2024-.35046-.56494a10.85935,10.85935,0,0,0-14.9646-3.50659l-4.00952,2.4834a12.53169,12.53169,0,0,1-3.04517,1.886l-1.728,1.07031a8.347,8.347,0,0,0,1.0896-.81714c-.13843.05151-.27392.10937-.41455.15613L169.7002,413.89355a22.57114,22.57114,0,0,0,1.16381,6.21534c.59729,8.72851,3.86292,13.92627,5.60218,16.24743a49.34933,49.34933,0,0,0,7.14514,7.2627,65.58691,65.58691,0,0,0,6.84595,5.18664l46.05346-28.15942Z"/><path fill="#75212c" d="M235.037 417.46006l-.18994-.19018-13.18994-13.17994-.47022-.47a10.85924 10.85924 0 0 0-15.36962 0l-5.07129 5.064a55.63726 55.63726 0 0 0 2.52539 6.35156v.00024a49.12885 49.12885 0 0 0 29.79248 25.92554l1.97314-1.97119a14.98984 14.98984 0 0 0 1.78028-2.14014 15.24656 15.24656 0 0 0-.38038-17.77A14.23814 14.23814 0 0 0 235.037 417.46006zM198.5165 399.17027a55.408 55.408 0 0 0 1.94629 8.63623 8.25507 8.25507 0 0 0-1.94629-8.63623z"/><path fill="#f9beac" d="M191.4871,441.66a22.84815,22.84815,0,0,0,29.35-2.48l3.78-3.78,10.42-10.41a14.97119,14.97119,0,0,0,1.78-2.14,15.2467,15.2467,0,0,0-.38-17.77,14.25792,14.25792,0,0,0-1.4-1.62l-.19-.19-13.19-13.18-.47-.47a10.85947,10.85947,0,0,0-15.37,0l-7.31,7.3a8.30492,8.30492,0,0,0,0-11.76l-2.59-2.59a8.32907,8.32907,0,0,0-11.76,0l-9.96,9.97a22.85262,22.85262,0,0,0-3.25,28.2Z"/><path fill="#e58a7b" d="M308.54761,402.54407a12.53666,12.53666,0,0,1-5.66919-3.87244l-3.56177-1.80237a10.85936,10.85936,0,0,0-14.60767,4.7804l-.30053.59277-8.37378,16.50488-.19129,1.89893,45.52784,27.83789c.32385-.17041.80139-.42725,1.3695-.75391a39.8081,39.8081,0,0,0,13.80078-12.57141,36.01169,36.01169,0,0,0,5.59461-19.55822c.14416-.58448.26111-1.17188.3573-1.7605Z"/><path fill="#75212c" d="M309.2748 415.03574v-.00024a55.71663 55.71663 0 0 0 2.39209-5.93921L306.183 403.62a10.85981 10.85981 0 0 0-15.37012 0l-.46973.47-13.19043 13.17994-.18994.19018a14.28831 14.28831 0 0 0-1.3999 1.61987 15.24652 15.24652 0 0 0-.37988 17.77 14.98609 14.98609 0 0 0 1.77978 2.14014l2.10352 2.10107A49.13012 49.13012 0 0 0 309.2748 415.03574zM313.49307 399.16a8.26986 8.26986 0 0 0-1.65039 9.39185 55.45845 55.45845 0 0 0 2.2705-10.012z"/><path fill="#f9beac" d="M320.5129,441.66a22.84815,22.84815,0,0,1-29.35-2.48l-3.78-3.78-10.42-10.41a14.97119,14.97119,0,0,1-1.78-2.14,15.2467,15.2467,0,0,1,.38-17.77,14.25792,14.25792,0,0,1,1.4-1.62l.19-.19,13.19-13.18.47-.47a10.85947,10.85947,0,0,1,15.37,0l7.31,7.3a8.30492,8.30492,0,0,1,0-11.76l2.59-2.59a8.32907,8.32907,0,0,1,11.76,0l9.96,9.97a22.85262,22.85262,0,0,1,3.25,28.2Z"/><path fill="#e58a7b" d="M365.39865 421.4627l9.22292 3.35869a2 2 0 0 0 2.13406-3.25708l-11.357-11.94942zM146.94692 421.4627l-9.22291 3.35869a2 2 0 0 1-2.13406-3.25708l11.357-11.94942z"/><path fill="#24242b" d="M412.68945,286.9707A85.99443,85.99443,0,0,0,369,255.37109a12.58417,12.58417,0,0,0-10.40088-10.93164c-.062-.01074-.124-.01953-.18652-.02636l-30.894-3.58008a12.51678,12.51678,0,0,0-11.86938,4.57055l-.08179-.01391a16.99663,16.99663,0,0,1-14.17724-16.79981V215.819a109.74135,109.74135,0,0,0,26.08471-56.09851l7.7981,11.15747a12.43446,12.43446,0,0,0,8.063,5.14355,12.64943,12.64943,0,0,0,2.21045.19532,12.377,12.377,0,0,0,7.12793-2.25782l26.11279-18.24218a12.52676,12.52676,0,0,0,3.08154-17.41211L337.56836,74.9292a37.83542,37.83542,0,0,0,2.38184-13.229v-6.21A55.5729,55.5729,0,0,0,284.41992,0H230.80566a55.57478,55.57478,0,0,0-55.53418,55.48926V77.75488a24.98089,24.98089,0,0,0,7.19873,17.61206V109.0957h-7.21484a13.5462,13.5462,0,0,0-13.32031,16.02051l4.31836,23.21289a13.55036,13.55036,0,0,0,13.32031,11.06836h4.14636a110.05583,110.05583,0,0,0,26.09,56.35352v12.83886a16.99823,16.99823,0,0,1-14.18115,16.80078l-3.30738.5669a12.51867,12.51867,0,0,0-12.321-5.11768l-25.94922,3.583c-.0376.00488-.0752.01074-.11231.0166a12.57851,12.57851,0,0,0-10.34472,10.604A86.03057,86.03057,0,0,0,83.31689,342.249a3.48318,3.48318,0,0,0,.15149.79139l2.67884,45.7445,2.1477,41.59595a49.02069,49.02069,0,0,0,55.15528,46.23035V508.5a3.5,3.5,0,0,0,7,0V475.19446a49.7118,49.7118,0,0,0,12.49511-5.4679l34.8313-21.28882a26.06465,26.06465,0,0,0,6.84741.93238,26.50884,26.50884,0,0,0,3.71827-.2627,26.0129,26.0129,0,0,0,14.96923-7.45215l.6438-.64331a52.61451,52.61451,0,0,0,23.74488,5.68824h17.13964a52.72391,52.72391,0,0,0,23.3899-5.50379l.45825.45789a26.0013,26.0013,0,0,0,14.95361,7.45117,26.71266,26.71266,0,0,0,3.73145.26367,26.08907,26.08907,0,0,0,7.09741-1.00024l34.93335,21.35766a49.73043,49.73043,0,0,0,12.69531,5.51966V508.5a3.5,3.5,0,0,0,7,0V476.63477A48.2659,48.2659,0,0,0,375,477.00391a49.26527,49.26527,0,0,0,49.06543-46.624l.69409-13.48437a3.48619,3.48619,0,0,0,.12573-.7461l3.8501-74.70019A85.93185,85.93185,0,0,0,412.68945,286.9707ZM182.46631,152.39746h-2.89258a6.54865,6.54865,0,0,1-6.43848-5.34766l-4.31836-23.21386a6.5455,6.5455,0,0,1,6.43848-7.74024h7.21094ZM319.87012,302.74023v-49.46a5.6175,5.6175,0,0,1,6.57129-5.53027c.06152.01074.12353.01953.18554.02637l30.875,3.57812a5.60835,5.60835,0,0,1,4.59815,5.52539V416.6731l-14.31323-4.7627a26.54579,26.54579,0,0,0,.18432-4.15942,26.19885,26.19885,0,0,0-7.69238-17.68457L330.314,380.0918a11.85669,11.85669,0,0,0-13.7583-2.13733,58.68957,58.68957,0,0,0-12.86914-25.31482l-2.94763-3.4065A66.23806,66.23806,0,0,0,319.87012,302.74023Zm11.75927-150.34277h-.73291l-2.15966-3.08984V143.2251c.00024-.08167.00341-.16284.00341-.24463V116.0957h7.207a6.5464,6.5464,0,0,1,6.439,7.74121l-4.31836,23.21192A6.549,6.549,0,0,1,331.62939,152.39746Zm44.50147-10.084a5.51673,5.51673,0,0,1-1.35547,7.667l-26.11328,18.24219a5.49839,5.49839,0,0,1-7.65332-1.35743l-5.60034-8.01257a13.5473,13.5473,0,0,0,9.54126-10.52356l4.31836-23.21289a13.54579,13.54579,0,0,0-13.3208-16.02051h-7.207V88.55737a37.659,37.659,0,0,0,5.27222-6.49756ZM332.9502,55.49023v6.21a30.7735,30.7735,0,0,1-38.07959,29.88964l-25.05274-6.12011c-.287-.06983-.572-.15406-.8584-.22852A52.42989,52.42989,0,0,0,296.7832,38.85156V16.36035a16.23182,16.23182,0,0,0-2.28882-8.30261A48.579,48.579,0,0,1,332.9502,55.49023ZM182.27148,77.75488V55.48926A48.56661,48.56661,0,0,1,230.80566,7h49.61182a9.3739,9.3739,0,0,1,9.36572,9.36035V38.85156a45.467,45.467,0,0,1-34.76562,44.26563L204.7583,95.39746a18.1688,18.1688,0,0,1-22.48682-17.64258Zm17.39454,110.042a104.31619,104.31619,0,0,1-10.19581-44.81641v-42.594a24.89768,24.89768,0,0,0,10.91895,2.54126,25.39237,25.39237,0,0,0,6.03027-.72949L256.67871,89.918c.78418-.19165,1.55933-.40259,2.32739-.62732a65.25278,65.25278,0,0,0,9.15357,2.97986L293.21,98.39062a38.0483,38.0483,0,0,0,9.04346,1.09278A37.4363,37.4363,0,0,0,321.74023,94.01v18.55176c-.00012.01172-.00341.02234-.00341.03393v30.62964a103.02732,103.02732,0,0,1-26.27735,68.73316c-.05127.0498-.09594.10473-.144.15747a104.71548,104.71548,0,0,1-12.34814,11.676A41.849,41.849,0,0,1,256.73,233.01953h-2.25A42.11466,42.11466,0,0,1,228.23047,223.79,104.2263,104.2263,0,0,1,199.666,187.79688ZM196.80762,252.29a23.97759,23.97759,0,0,0,20.00244-23.7002V223.082q3.38984,3.23493,7.04053,6.168A49.13437,49.13437,0,0,0,254.48,240.01953h2.25A48.85993,48.85993,0,0,0,287.35059,229.25q3.66723-2.94195,7.03955-6.14624v5.48608a23.959,23.959,0,0,0,18.55127,23.38672,12.66608,12.66608,0,0,0-.07129,1.30371v49.46a59.21381,59.21381,0,0,1-16.7334,41.17456l-.99951-1.155a52.40314,52.40314,0,0,1-10.87842-47.624,11.918,11.918,0,0,0-.15576-23.835H228.44336a11.91833,11.91833,0,0,0-.1344,23.83594,51.99337,51.99337,0,0,1-10.9071,47.624l-3.26868,3.78162c-.734-.66443-1.45154-1.34-2.13953-2.02771a58.66475,58.66475,0,0,1-17.31347-41.77442v-49.46c0-.20837-.02369-.413-.03394-.61987Zm31.63574,35.85351a4.92139,4.92139,0,1,1,0-9.84277H284.103a4.92138,4.92138,0,0,1,0,9.84277ZM150.4502,256.87988a5.606,5.606,0,0,1,4.6206-5.53125l25.9375-3.582c.03711-.00488.07373-.01074.10986-.0166a5.60933,5.60933,0,0,1,6.562,5.53027v49.46a65.61463,65.61463,0,0,0,19.36474,46.72461c.80664.80664,1.64527,1.6001,2.50757,2.3772l-.68872.79663a58.74677,58.74677,0,0,0-12.9436,25.5835,11.85036,11.85036,0,0,0-14.239,1.87451l-9.959,9.96875a26.19449,26.19449,0,0,0-7.69287,17.67969,26.57358,26.57358,0,0,0,.20141,4.27954l-13.78051,4.58276Zm67.91162,179.8252a19.35057,19.35057,0,0,1-24.84278,2.10547,3.49975,3.49975,0,1,0-4.06347,5.69922c.20849.14868.42736.27734.6394.41943l-30.80151,18.82568a42.09723,42.09723,0,0,1-64.0083-33.73535l-2.137-41.39075c-.00256-.05822-.00293-.11718-.008-.17468l-.00879-.14868L91.9751,365.90918a3.46447,3.46447,0,0,0-.21314-.98889l-1.4563-24.86853a3.47673,3.47673,0,0,0-.09826-.61109A79.02678,79.02678,0,0,1,143.4502,262.447V418.94849l-4.752,1.59839a3.5,3.5,0,1,0,2.23145,6.63476l7.13623-2.40039c.011-.00366.02014-.01025.03113-.01416l17.9364-5.96472a26.151,26.151,0,0,0,1.94458,3.7904,3.49975,3.49975,0,1,0,5.93847-3.70507,19.35237,19.35237,0,0,1,2.75684-23.874l9.95508-9.96484a4.83381,4.83381,0,0,1,6.814-.00293l2.58985,2.58887a4.80488,4.80488,0,0,1,0,6.81054,3.5,3.5,0,0,0,4.94824,4.95117l7.31689-7.30664a7.35924,7.35924,0,0,1,10.416.00684L232.562,405.93457a10.98974,10.98974,0,0,1,1.08154,1.25391,11.685,11.685,0,0,1,.2837,13.68554,11.37282,11.37282,0,0,1-1.36377,1.64063Zm46.478,2.99512H247.7002a45.618,45.618,0,0,1-18.48633-3.94288l8.29834-8.29248a18.72137,18.72137,0,0,0,1.74316-24.46,17.74852,17.74852,0,0,0-1.74023-2.0166l-13.853-13.84277a14.36182,14.36182,0,0,0-19.98828-.32324,11.72852,11.72852,0,0,0-1.67615-2.96375,51.77306,51.77306,0,0,1,12.16-26.63977l8.5376-9.877a59.03044,59.03044,0,0,0,12.83936-52.19825h41.49255a59.47076,59.47076,0,0,0,12.81653,52.19629l8.55029,9.88086a51.72793,51.72793,0,0,1,12.06519,26.08484,11.76133,11.76133,0,0,0-2.13306,3.5177,14.36023,14.36023,0,0,0-19.98681.32031l-13.85157,13.8418a17.59488,17.59488,0,0,0-1.71826,1.98633,18.71619,18.71619,0,0,0,1.71973,24.49414l8.46533,8.45911A45.70593,45.70593,0,0,1,264.83984,439.7002Zm156.90479-98.61036-1.23975,24.05725a3.49517,3.49517,0,0,0-.13037.76307l-3.2998,64.10937a42.14246,42.14246,0,0,1-50.65723,39.05737c-.08179-.01965-.16406-.03491-.24805-.0487a42.44352,42.44352,0,0,1-13.11377-5.27429l-30.97692-18.9386c.15368-.10486.31384-.19727.46569-.30554a3.49975,3.49975,0,1,0-4.06347-5.69922,19.34874,19.34874,0,0,1-24.84326-2.10645L279.438,422.51562a11.41055,11.41055,0,0,1-1.3711-1.64941,11.69619,11.69619,0,0,1,.31446-13.71094,10.8367,10.8367,0,0,1,1.05957-1.22363l13.84717-13.83691a7.35945,7.35945,0,0,1,10.42187.00195l7.30957,7.2998a3.5,3.5,0,0,0,4.94824-4.95117,4.80429,4.80429,0,0,1-.00048-6.80957l2.58691-2.58691a4.83561,4.83561,0,0,1,6.8125-.00488l9.96094,9.9707a19.35135,19.35135,0,0,1,2.75586,23.873,3.49975,3.49975,0,1,0,5.93847,3.70507,26.1453,26.1453,0,0,0,1.98584-3.89624l18.21839,6.06177.00915.0044,7.45166,2.63867a3.49965,3.49965,0,1,0,2.33692-6.59766l-4.92383-1.74353V262.78235a78.64073,78.64073,0,0,1,52.64453,78.30749ZM217.33057,128.374v7.40918a3.5,3.5,0,0,0,7,0V128.374a3.5,3.5,0,0,0-7,0Zm23.75683,65.76953c5.82373,0,10.67774-1.5332,14.51758-4.59472,6.93164,5.52441,17.15772,6.07129,30.45215,1.60742a45.59746,45.59746,0,0,0,19.32471-12.9541,9.4336,9.4336,0,0,0,.93115-11.61035,9.33756,9.33756,0,0,0-10.87158-3.835,19.99112,19.99112,0,0,1-10.29346.88378,27.60517,27.60517,0,0,1-3.95459-1.20214,33.37869,33.37869,0,0,0-8.45508-2.08887c-.728-.07739-1.464-.12183-2.20288-.15088.02734-.36841.0564-.73657.0564-1.11182v-9.21875a3.5,3.5,0,0,0-7,0v9.21875a7.99024,7.99024,0,0,1-15.98047,0v-9.21875a3.5,3.5,0,0,0-7,0v9.21875c0,.37574.029.74439.05639,1.11329-.73681.02905-1.47094.07324-2.197.14941a33.34651,33.34651,0,0,0-8.46045,2.08984,27.52157,27.52157,0,0,1-3.94677,1.20117,19.82827,19.82827,0,0,1-10.3086-.88476,9.3324,9.3324,0,0,0-10.86474,3.83691,9.42922,9.42922,0,0,0,.92675,11.60743,45.75128,45.75128,0,0,0,19.34278,12.96191A50.74386,50.74386,0,0,0,241.0874,194.14355Zm-30.08594-20.64648a2.44959,2.44959,0,0,1-.24023-3.09277,2.31485,2.31485,0,0,1,2.80225-1,26.93791,26.93791,0,0,0,13.894,1.0957,33.89793,33.89793,0,0,0,4.91748-1.47168,26.63115,26.63115,0,0,1,6.833-1.71777,26.9174,26.9174,0,0,1,3.80237-.12183,14.95868,14.95868,0,0,0,25.18164.00122,27.00475,27.00475,0,0,1,3.808.12061,26.7278,26.7278,0,0,1,6.83057,1.71679A34.05638,34.05638,0,0,0,283.75146,170.5a26.84637,26.84637,0,0,0,13.88184-1.09473,2.31613,2.31613,0,0,1,2.80811.99805,2.45252,2.45252,0,0,1-.24707,3.09863,38.7011,38.7011,0,0,1-16.38477,11.02539c-11.57275,3.88477-19.9209,3.44434-24.811-1.30761-.26221-.25489-.50977-.51856-.7417-.78809a3.49688,3.49688,0,0,0-2.65528-1.22168h-.00146a3.49983,3.49983,0,0,0-2.65528,1.21973c-.23144.26953-.46923.5332-.73437.791-4.89063,4.75293-13.24268,5.19336-24.832,1.30274A38.82831,38.82831,0,0,1,211.00146,173.49707ZM286.87207,128.374v7.40918a3.5,3.5,0,0,0,7,0V128.374a3.5,3.5,0,1,0-7,0Zm-20.94873,73.67481a27.1382,27.1382,0,0,1-20.64111,0,3.50043,3.50043,0,0,0-2.65821,6.47656,34.06657,34.06657,0,0,0,12.11182,2.55176q.44092.01025.87988.01074a34.00117,34.00117,0,0,0,12.96094-2.5625,3.4995,3.4995,0,1,0-2.65332-6.47656Zm12.80176-80.416a3.50144,3.50144,0,0,0,1.32715-.26269,27.06877,27.06877,0,0,1,9.63183-2.03028,27.37332,27.37332,0,0,1,11.00977,2.03028,3.4995,3.4995,0,1,0,2.65332-6.47657,34.13337,34.13337,0,0,0-25.95215,0,3.50078,3.50078,0,0,0,1.33008,6.73926Zm-69.54151,0a3.50141,3.50141,0,0,0,1.32715-.26269,27.06883,27.06883,0,0,1,9.63184-2.03028,27.35085,27.35085,0,0,1,11.01025,2.03028,3.4995,3.4995,0,1,0,2.65332-6.47657,34.13451,34.13451,0,0,0-25.95263,0,3.50078,3.50078,0,0,0,1.33007,6.73926Z"/></svg>